G04 #@! TF.GenerationSoftware,KiCad,Pcbnew,8.0.5*
G04 #@! TF.CreationDate,2024-11-16T16:19:56+03:00*
G04 #@! TF.ProjectId,USB_duck_v2,5553425f-6475-4636-9b5f-76322e6b6963,rev?*
G04 #@! TF.SameCoordinates,Original*
G04 #@! TF.FileFunction,Copper,L3,Inr*
G04 #@! TF.FilePolarity,Positive*
%FSLAX46Y46*%
G04 Gerber Fmt 4.6, Leading zero omitted, Abs format (unit mm)*
G04 Created by KiCad (PCBNEW 8.0.5) date 2024-11-16 16:19:56*
%MOMM*%
%LPD*%
G01*
G04 APERTURE LIST*
G04 #@! TA.AperFunction,ComponentPad*
%ADD10R,0.850000X0.850000*%
G04 #@! TD*
G04 #@! TA.AperFunction,ComponentPad*
%ADD11O,0.850000X0.850000*%
G04 #@! TD*
G04 #@! TA.AperFunction,ComponentPad*
%ADD12O,1.000000X1.800000*%
G04 #@! TD*
G04 #@! TA.AperFunction,ComponentPad*
%ADD13O,0.950000X2.150000*%
G04 #@! TD*
G04 #@! TA.AperFunction,ViaPad*
%ADD14C,0.600000*%
G04 #@! TD*
G04 #@! TA.AperFunction,Conductor*
%ADD15C,0.200000*%
G04 #@! TD*
G04 APERTURE END LIST*
D10*
X4500000Y-27500000D03*
D11*
X4500000Y-26500000D03*
X4500000Y-25500000D03*
D12*
X-5620000Y-30800000D03*
D13*
X-5620000Y-34800000D03*
D12*
X5620000Y-30800000D03*
D13*
X5620000Y-34800000D03*
D14*
X-5100000Y-28900000D03*
X-7698911Y-22500500D03*
X7600000Y-22100000D03*
X-2800000Y-2700000D03*
X-2700000Y-20700000D03*
X-10300000Y-24000000D03*
X-7000000Y-28000000D03*
X2900000Y-3500000D03*
X-7200000Y-29900000D03*
X-1700000Y-8000000D03*
X-7000000Y-27000000D03*
X-6300000Y-29000000D03*
X7800000Y-14800000D03*
X7200000Y-29900000D03*
X8000000Y-8300000D03*
X-2400000Y-8000000D03*
X-7800000Y-5200000D03*
X-1100000Y-10200000D03*
X10200000Y-26400000D03*
X7210000Y-9700000D03*
X4354500Y-17321236D03*
X-4200000Y-29000000D03*
X-6900000Y-13700000D03*
X-7699500Y-19100000D03*
X-1200000Y-5200000D03*
X-10500000Y-14200000D03*
X-7699500Y-18406374D03*
X-2800000Y-1000000D03*
X-3100000Y-25100000D03*
X2390000Y-10180000D03*
X2985061Y-27765141D03*
X4300000Y-29000000D03*
X10500000Y-10300000D03*
X-7000000Y-26000000D03*
X6310000Y-19180000D03*
X2947060Y-1074626D03*
X-5770000Y-17850000D03*
X5978819Y-20321888D03*
X-2110000Y-10110000D03*
X9000000Y-16300000D03*
X-2600000Y-6400000D03*
X-3323911Y-22576089D03*
X-2600000Y-7100000D03*
X6500000Y-28200000D03*
X1270000Y-10190000D03*
X-5791393Y-13440311D03*
X-1900000Y-7100000D03*
X-1900000Y-6400000D03*
X6439331Y-12395720D03*
X-250500Y-21400000D03*
X3300000Y-28500000D03*
X-2800000Y-28500000D03*
X2200181Y-1359891D03*
X-4800000Y-4200000D03*
X-7400000Y-14900000D03*
X-5325000Y-20975000D03*
X453710Y-1644849D03*
X-350500Y-1700000D03*
X1380000Y-27999500D03*
X-7900000Y-17210000D03*
X813966Y-5670000D03*
X114474Y-5200000D03*
X-2371844Y-26559461D03*
X-7450500Y-16480000D03*
X-480000Y-22900000D03*
X-536944Y-28000500D03*
X-854406Y-26923008D03*
X1170000Y-2000000D03*
X-3600000Y-1000000D03*
X-3304891Y-18890000D03*
X3068920Y-20038067D03*
X4214183Y-20014183D03*
X5146791Y-14127145D03*
X3974265Y-11525735D03*
X-4343712Y-17437927D03*
X-2200001Y-16611853D03*
X-2241628Y-17468223D03*
X2034658Y-17925818D03*
X-4215496Y-18883700D03*
X5679182Y-14724274D03*
X-4700000Y-12900000D03*
X5100000Y-11700000D03*
D15*
X779500Y-28600000D02*
X-1843504Y-28600000D01*
X-6900000Y-23543504D02*
X-6900000Y-18210000D01*
X1380000Y-27999500D02*
X779500Y-28600000D01*
X-1843504Y-28600000D02*
X-6900000Y-23543504D01*
X-6900000Y-18210000D02*
X-7900000Y-17210000D01*
X-3313318Y-26564500D02*
X-2442318Y-26564500D01*
X-2437279Y-26559461D02*
X-2371844Y-26559461D01*
X-6500000Y-17430500D02*
X-6500000Y-23377818D01*
X-6500000Y-23377818D02*
X-3313318Y-26564500D01*
X-7450500Y-16480000D02*
X-6500000Y-17430500D01*
X-2442318Y-26564500D02*
X-2437279Y-26559461D01*
X5053003Y-14220933D02*
X5053003Y-16605524D01*
X5146791Y-14127145D02*
X5053003Y-14220933D01*
X5354500Y-16907022D02*
X5354500Y-26915500D01*
X5053003Y-16605524D02*
X5354500Y-16907022D01*
X4770000Y-27500000D02*
X4500000Y-27500000D01*
X5354500Y-26915500D02*
X4770000Y-27500000D01*
X3974265Y-11525735D02*
X4450000Y-12001470D01*
X4450000Y-16568207D02*
X4954500Y-17072707D01*
X4954500Y-25045500D02*
X4500000Y-25500000D01*
X4954500Y-17072707D02*
X4954500Y-25045500D01*
X4450000Y-12001470D02*
X4450000Y-16568207D01*
G04 #@! TA.AperFunction,Conductor*
G36*
X4136375Y1029815D02*
G01*
X4146473Y1022587D01*
X10543118Y-4059678D01*
X10543122Y-4059682D01*
X10585213Y-4093125D01*
X10591284Y-4098276D01*
X10748954Y-4240983D01*
X10760039Y-4252393D01*
X10868351Y-4379254D01*
X10895543Y-4411103D01*
X10905082Y-4423850D01*
X11019134Y-4598617D01*
X11026961Y-4612481D01*
X11117676Y-4800414D01*
X11123659Y-4815160D01*
X11189545Y-5013165D01*
X11193592Y-5028563D01*
X11233565Y-5233382D01*
X11235605Y-5249172D01*
X11249244Y-5461136D01*
X11249500Y-5469098D01*
X11249500Y-6562129D01*
X11229815Y-6629168D01*
X11177011Y-6674923D01*
X11107853Y-6684867D01*
X11093410Y-6681904D01*
X10972475Y-6649500D01*
X10827525Y-6649500D01*
X10706593Y-6681904D01*
X10687511Y-6687017D01*
X10561988Y-6759488D01*
X10561982Y-6759493D01*
X10459493Y-6861982D01*
X10459488Y-6861988D01*
X10387017Y-6987511D01*
X10387016Y-6987515D01*
X10349500Y-7127525D01*
X10349500Y-7272475D01*
X10351317Y-7279255D01*
X10387017Y-7412488D01*
X10459488Y-7538011D01*
X10459490Y-7538013D01*
X10459491Y-7538015D01*
X10561985Y-7640509D01*
X10561986Y-7640510D01*
X10561988Y-7640511D01*
X10687511Y-7712982D01*
X10687512Y-7712982D01*
X10687515Y-7712984D01*
X10827525Y-7750500D01*
X10827528Y-7750500D01*
X10972472Y-7750500D01*
X10972475Y-7750500D01*
X11093410Y-7718095D01*
X11163255Y-7719758D01*
X11221118Y-7758920D01*
X11248623Y-7823148D01*
X11249500Y-7837870D01*
X11249500Y-24562129D01*
X11229815Y-24629168D01*
X11177011Y-24674923D01*
X11107853Y-24684867D01*
X11093410Y-24681904D01*
X10972475Y-24649500D01*
X10827525Y-24649500D01*
X10706593Y-24681904D01*
X10687511Y-24687017D01*
X10561988Y-24759488D01*
X10561982Y-24759493D01*
X10459493Y-24861982D01*
X10459488Y-24861988D01*
X10387017Y-24987511D01*
X10387016Y-24987515D01*
X10349500Y-25127525D01*
X10349500Y-25272475D01*
X10387016Y-25412485D01*
X10387017Y-25412488D01*
X10459488Y-25538011D01*
X10459490Y-25538013D01*
X10459491Y-25538015D01*
X10561985Y-25640509D01*
X10561986Y-25640510D01*
X10561988Y-25640511D01*
X10687511Y-25712982D01*
X10687512Y-25712982D01*
X10687515Y-25712984D01*
X10827525Y-25750500D01*
X10827528Y-25750500D01*
X10972472Y-25750500D01*
X10972475Y-25750500D01*
X11093410Y-25718095D01*
X11163255Y-25719758D01*
X11221118Y-25758920D01*
X11248623Y-25823148D01*
X11249500Y-25837870D01*
X11249500Y-26984036D01*
X11249244Y-26992000D01*
X11248235Y-27007670D01*
X11235575Y-27204342D01*
X11233533Y-27220139D01*
X11193521Y-27425059D01*
X11189470Y-27440465D01*
X11123521Y-27638557D01*
X11117529Y-27653315D01*
X11117370Y-27653646D01*
X11026727Y-27841321D01*
X11018892Y-27855190D01*
X10904738Y-28030002D01*
X10895190Y-28042752D01*
X10756925Y-28204581D01*
X10751556Y-28210471D01*
X10706716Y-28256592D01*
X10706715Y-28256594D01*
X9872314Y-29114835D01*
X8569780Y-30454584D01*
X8346674Y-30684064D01*
X8346668Y-30684071D01*
X8299894Y-30732179D01*
X8299877Y-30732199D01*
X8147473Y-30928112D01*
X8147472Y-30928113D01*
X8017529Y-31139608D01*
X8017521Y-31139622D01*
X7911629Y-31364112D01*
X7911624Y-31364124D01*
X7831058Y-31598905D01*
X7776794Y-31841134D01*
X7749497Y-32087857D01*
X7749500Y-32200500D01*
X7749500Y-35592928D01*
X7748695Y-35607031D01*
X7736898Y-35710079D01*
X7730523Y-35737557D01*
X7698126Y-35828575D01*
X7685706Y-35853901D01*
X7633579Y-35935239D01*
X7615758Y-35957102D01*
X7546597Y-36024556D01*
X7524298Y-36041824D01*
X7443725Y-36090664D01*
X7441684Y-36091901D01*
X7416057Y-36103683D01*
X7336483Y-36129785D01*
X7324258Y-36133795D01*
X7296631Y-36139480D01*
X7204217Y-36147725D01*
X7193304Y-36148699D01*
X7179189Y-36149151D01*
X7140400Y-36148182D01*
X7125952Y-36149265D01*
X6524483Y-36149449D01*
X6457437Y-36129785D01*
X6411666Y-36076995D01*
X6401702Y-36007840D01*
X6421342Y-35956560D01*
X6484477Y-35862073D01*
X6558012Y-35684543D01*
X6595500Y-35496078D01*
X6595500Y-34103922D01*
X6595500Y-34103919D01*
X6595499Y-34103917D01*
X6558013Y-33915464D01*
X6558012Y-33915457D01*
X6484477Y-33737927D01*
X6377720Y-33578155D01*
X6377717Y-33578151D01*
X6241848Y-33442282D01*
X6241844Y-33442279D01*
X6082070Y-33335521D01*
X6082068Y-33335520D01*
X5904547Y-33261989D01*
X5904535Y-33261986D01*
X5716081Y-33224500D01*
X5716078Y-33224500D01*
X5523922Y-33224500D01*
X5523919Y-33224500D01*
X5335464Y-33261986D01*
X5335452Y-33261989D01*
X5157931Y-33335520D01*
X5157929Y-33335521D01*
X5063391Y-33398690D01*
X4996713Y-33419568D01*
X4929333Y-33401083D01*
X4882643Y-33349104D01*
X4870500Y-33295588D01*
X4870500Y-32134479D01*
X4890185Y-32067440D01*
X4942989Y-32021685D01*
X5012147Y-32011741D01*
X5063390Y-32031376D01*
X5146086Y-32086632D01*
X5146088Y-32086633D01*
X5146092Y-32086635D01*
X5328160Y-32162049D01*
X5328165Y-32162051D01*
X5328169Y-32162051D01*
X5328170Y-32162052D01*
X5521456Y-32200500D01*
X5521459Y-32200500D01*
X5718543Y-32200500D01*
X5848582Y-32174632D01*
X5911835Y-32162051D01*
X6090947Y-32087861D01*
X6093907Y-32086635D01*
X6093907Y-32086634D01*
X6093914Y-32086632D01*
X6257782Y-31977139D01*
X6397139Y-31837782D01*
X6506632Y-31673914D01*
X6582051Y-31491835D01*
X6594632Y-31428582D01*
X6620500Y-31298543D01*
X6620500Y-30301456D01*
X6582052Y-30108170D01*
X6582051Y-30108169D01*
X6582051Y-30108165D01*
X6579966Y-30103132D01*
X6506635Y-29926092D01*
X6506628Y-29926079D01*
X6397139Y-29762218D01*
X6397136Y-29762214D01*
X6257785Y-29622863D01*
X6257781Y-29622860D01*
X6093920Y-29513371D01*
X6093907Y-29513364D01*
X5911839Y-29437950D01*
X5911829Y-29437947D01*
X5718543Y-29399500D01*
X5718541Y-29399500D01*
X5521459Y-29399500D01*
X5521457Y-29399500D01*
X5328170Y-29437947D01*
X5328160Y-29437950D01*
X5146092Y-29513364D01*
X5146079Y-29513371D01*
X4982218Y-29622860D01*
X4872610Y-29732468D01*
X4811287Y-29765952D01*
X4741595Y-29760968D01*
X4698050Y-29733263D01*
X4697240Y-29732468D01*
X4638904Y-29675185D01*
X4638901Y-29675182D01*
X4520905Y-29602534D01*
X4520906Y-29602534D01*
X4389697Y-29557960D01*
X4389687Y-29557958D01*
X4374430Y-29556380D01*
X4358339Y-29553520D01*
X4357629Y-29553467D01*
X4346158Y-29552613D01*
X4318964Y-29550590D01*
X4315409Y-29550274D01*
X4276141Y-29546212D01*
X4259791Y-29546189D01*
X4251354Y-29545562D01*
X4251353Y-29545562D01*
X4251351Y-29545562D01*
X4179849Y-29556380D01*
X4127949Y-29564232D01*
X4011798Y-29609893D01*
X3908720Y-29680255D01*
X3823885Y-29771785D01*
X3823883Y-29771788D01*
X3823882Y-29771790D01*
X3761540Y-29879909D01*
X3761539Y-29879911D01*
X3758062Y-29885942D01*
X3755689Y-29884573D01*
X3718823Y-29928639D01*
X3652135Y-29949481D01*
X3649987Y-29949500D01*
X-3649987Y-29949500D01*
X-3717026Y-29929815D01*
X-3756048Y-29884780D01*
X-3758062Y-29885942D01*
X-3761539Y-29879911D01*
X-3761540Y-29879909D01*
X-3823882Y-29771790D01*
X-3823881Y-29771790D01*
X-3823883Y-29771788D01*
X-3823885Y-29771785D01*
X-3908720Y-29680255D01*
X-4011798Y-29609893D01*
X-4127949Y-29564232D01*
X-4251355Y-29545561D01*
X-4259794Y-29546189D01*
X-4276141Y-29546212D01*
X-4315396Y-29550272D01*
X-4318947Y-29550588D01*
X-4358342Y-29553520D01*
X-4374425Y-29556379D01*
X-4382752Y-29557240D01*
X-4389696Y-29557959D01*
X-4520898Y-29602531D01*
X-4520901Y-29602532D01*
X-4520903Y-29602533D01*
X-4638904Y-29675185D01*
X-4638905Y-29675186D01*
X-4698051Y-29733263D01*
X-4759677Y-29766188D01*
X-4829320Y-29760568D01*
X-4872610Y-29732468D01*
X-4982218Y-29622860D01*
X-5146079Y-29513371D01*
X-5146092Y-29513364D01*
X-5328160Y-29437950D01*
X-5328170Y-29437947D01*
X-5521457Y-29399500D01*
X-5521459Y-29399500D01*
X-5718541Y-29399500D01*
X-5718543Y-29399500D01*
X-5911829Y-29437947D01*
X-5911839Y-29437950D01*
X-6093907Y-29513364D01*
X-6093920Y-29513371D01*
X-6257781Y-29622860D01*
X-6257785Y-29622863D01*
X-6397136Y-29762214D01*
X-6397139Y-29762218D01*
X-6506628Y-29926079D01*
X-6506635Y-29926092D01*
X-6579966Y-30103132D01*
X-6582051Y-30108165D01*
X-6582051Y-30108169D01*
X-6582052Y-30108170D01*
X-6620500Y-30301456D01*
X-6620500Y-31298543D01*
X-6594632Y-31428582D01*
X-6582051Y-31491835D01*
X-6506632Y-31673914D01*
X-6397139Y-31837782D01*
X-6257782Y-31977139D01*
X-6093914Y-32086632D01*
X-6093907Y-32086634D01*
X-6093907Y-32086635D01*
X-6090947Y-32087861D01*
X-5911835Y-32162051D01*
X-5848582Y-32174632D01*
X-5718543Y-32200500D01*
X-5718541Y-32200500D01*
X-5521456Y-32200500D01*
X-5328170Y-32162052D01*
X-5328169Y-32162051D01*
X-5328165Y-32162051D01*
X-5328160Y-32162049D01*
X-5146092Y-32086635D01*
X-5146088Y-32086633D01*
X-5146086Y-32086632D01*
X-5063390Y-32031376D01*
X-4996714Y-32010499D01*
X-4929334Y-32028983D01*
X-4882643Y-32080962D01*
X-4870500Y-32134479D01*
X-4870500Y-33295588D01*
X-4890185Y-33362627D01*
X-4942989Y-33408382D01*
X-5012147Y-33418326D01*
X-5063391Y-33398690D01*
X-5157929Y-33335521D01*
X-5157931Y-33335520D01*
X-5335452Y-33261989D01*
X-5335464Y-33261986D01*
X-5523919Y-33224500D01*
X-5523922Y-33224500D01*
X-5716078Y-33224500D01*
X-5716081Y-33224500D01*
X-5904535Y-33261986D01*
X-5904547Y-33261989D01*
X-6082068Y-33335520D01*
X-6082070Y-33335521D01*
X-6241844Y-33442279D01*
X-6241848Y-33442282D01*
X-6377717Y-33578151D01*
X-6377720Y-33578155D01*
X-6484477Y-33737927D01*
X-6558012Y-33915457D01*
X-6558013Y-33915464D01*
X-6595499Y-34103917D01*
X-6595500Y-34103919D01*
X-6595500Y-34103922D01*
X-6595500Y-35496078D01*
X-6558012Y-35684543D01*
X-6484477Y-35862073D01*
X-6421309Y-35956609D01*
X-6400432Y-36023284D01*
X-6418916Y-36090664D01*
X-6470895Y-36137355D01*
X-6524459Y-36149498D01*
X-7125934Y-36149269D01*
X-7140424Y-36148182D01*
X-7179194Y-36149150D01*
X-7193307Y-36148698D01*
X-7296628Y-36139480D01*
X-7324258Y-36133794D01*
X-7416055Y-36103682D01*
X-7441682Y-36091899D01*
X-7524294Y-36041824D01*
X-7546596Y-36024555D01*
X-7615758Y-35957101D01*
X-7633581Y-35935236D01*
X-7685707Y-35853898D01*
X-7698126Y-35828573D01*
X-7730521Y-35737561D01*
X-7736896Y-35710084D01*
X-7748695Y-35607021D01*
X-7749500Y-35592917D01*
X-7749500Y-32200500D01*
X-7749497Y-32087858D01*
X-7776793Y-31841132D01*
X-7831055Y-31598907D01*
X-7911622Y-31364125D01*
X-8017522Y-31139614D01*
X-8147469Y-30928112D01*
X-8147470Y-30928111D01*
X-8299882Y-30732187D01*
X-8368865Y-30661238D01*
X-8368867Y-30661236D01*
X-8569779Y-30454584D01*
X-9244128Y-29760968D01*
X-10751602Y-28210423D01*
X-10756971Y-28204534D01*
X-10895193Y-28042756D01*
X-10904741Y-28030005D01*
X-11018894Y-27855193D01*
X-11026729Y-27841323D01*
X-11117530Y-27653318D01*
X-11123522Y-27638559D01*
X-11189473Y-27440465D01*
X-11193524Y-27425058D01*
X-11233534Y-27220141D01*
X-11235576Y-27204344D01*
X-11249244Y-26992002D01*
X-11249500Y-26984037D01*
X-11249500Y-21837870D01*
X-11229815Y-21770831D01*
X-11177011Y-21725076D01*
X-11107853Y-21715132D01*
X-11093426Y-21718090D01*
X-10972475Y-21750500D01*
X-10972472Y-21750500D01*
X-10827528Y-21750500D01*
X-10827525Y-21750500D01*
X-10687515Y-21712984D01*
X-10687512Y-21712982D01*
X-10687511Y-21712982D01*
X-10561988Y-21640511D01*
X-10561986Y-21640510D01*
X-10561985Y-21640509D01*
X-10459491Y-21538015D01*
X-10459490Y-21538013D01*
X-10459488Y-21538011D01*
X-10387017Y-21412488D01*
X-10387016Y-21412485D01*
X-10349500Y-21272475D01*
X-10349500Y-21127525D01*
X-9650500Y-21127525D01*
X-9650500Y-21272475D01*
X-9612984Y-21412485D01*
X-9540509Y-21538015D01*
X-9438015Y-21640509D01*
X-9312488Y-21712982D01*
X-9312487Y-21712982D01*
X-9312485Y-21712984D01*
X-9172475Y-21750500D01*
X-9172472Y-21750500D01*
X-9027528Y-21750500D01*
X-9027525Y-21750500D01*
X-8887515Y-21712984D01*
X-8887512Y-21712982D01*
X-8887511Y-21712982D01*
X-8761988Y-21640511D01*
X-8761986Y-21640510D01*
X-8761985Y-21640509D01*
X-8659491Y-21538015D01*
X-8659490Y-21538013D01*
X-8659488Y-21538011D01*
X-8587017Y-21412488D01*
X-8587016Y-21412485D01*
X-8549500Y-21272475D01*
X-8549500Y-21127525D01*
X-8587016Y-20987515D01*
X-8587015Y-20987515D01*
X-8587017Y-20987511D01*
X-8659488Y-20861988D01*
X-8659493Y-20861982D01*
X-8761982Y-20759493D01*
X-8761988Y-20759488D01*
X-8887511Y-20687017D01*
X-8887510Y-20687017D01*
X-8929108Y-20675870D01*
X-9027525Y-20649500D01*
X-9172475Y-20649500D01*
X-9312485Y-20687016D01*
X-9312488Y-20687017D01*
X-9438011Y-20759488D01*
X-9438017Y-20759493D01*
X-9540506Y-20861982D01*
X-9540511Y-20861988D01*
X-9605758Y-20975000D01*
X-9612984Y-20987515D01*
X-9650500Y-21127525D01*
X-10349500Y-21127525D01*
X-10387016Y-20987515D01*
X-10387015Y-20987515D01*
X-10387017Y-20987511D01*
X-10459488Y-20861988D01*
X-10459493Y-20861982D01*
X-10561982Y-20759493D01*
X-10561988Y-20759488D01*
X-10687511Y-20687017D01*
X-10687510Y-20687017D01*
X-10729108Y-20675870D01*
X-10827525Y-20649500D01*
X-10972475Y-20649500D01*
X-11093406Y-20681903D01*
X-11163256Y-20680241D01*
X-11221119Y-20641079D01*
X-11248623Y-20576850D01*
X-11249500Y-20562129D01*
X-11249500Y-17209996D01*
X-8705565Y-17209996D01*
X-8705565Y-17210003D01*
X-8687222Y-17372804D01*
X-8685368Y-17389255D01*
X-8625789Y-17559522D01*
X-8529816Y-17712262D01*
X-8402262Y-17839816D01*
X-8249522Y-17935789D01*
X-8079255Y-17995368D01*
X-7992329Y-18005161D01*
X-7927918Y-18032226D01*
X-7918544Y-18040690D01*
X-7536817Y-18422417D01*
X-7503334Y-18483738D01*
X-7500500Y-18510096D01*
X-7500500Y-23456834D01*
X-7500501Y-23456852D01*
X-7500501Y-23464447D01*
X-7500501Y-23622561D01*
X-7459577Y-23775289D01*
X-7430639Y-23825408D01*
X-7380520Y-23912220D01*
X-7268716Y-24024024D01*
X-7268713Y-24024025D01*
X-3447714Y-27845023D01*
X-3414231Y-27906344D01*
X-3419215Y-27976036D01*
X-3430401Y-27998669D01*
X-3469180Y-28060385D01*
X-3525788Y-28150475D01*
X-3585368Y-28320745D01*
X-3585369Y-28320750D01*
X-3605565Y-28499996D01*
X-3605565Y-28500003D01*
X-3599985Y-28549523D01*
X-3585368Y-28679255D01*
X-3525789Y-28849522D01*
X-3429816Y-29002262D01*
X-3302262Y-29129816D01*
X-3149522Y-29225789D01*
X-2979255Y-29285368D01*
X-2979252Y-29285368D01*
X-2979249Y-29285369D01*
X-2800004Y-29305565D01*
X-2800000Y-29305565D01*
X-2799996Y-29305565D01*
X-2620750Y-29285369D01*
X-2620745Y-29285368D01*
X-2450478Y-29225789D01*
X-2297738Y-29129816D01*
X-2297736Y-29129814D01*
X-2292295Y-29125475D01*
X-2290342Y-29127922D01*
X-2241140Y-29101056D01*
X-2171448Y-29106040D01*
X-2152793Y-29114829D01*
X-2126836Y-29129816D01*
X-2075289Y-29159577D01*
X-1922562Y-29200500D01*
X-1922561Y-29200500D01*
X692831Y-29200500D01*
X692847Y-29200501D01*
X700443Y-29200501D01*
X858554Y-29200501D01*
X858557Y-29200501D01*
X1011285Y-29159577D01*
X1062832Y-29129816D01*
X1148216Y-29080520D01*
X1260020Y-28968716D01*
X1260020Y-28968714D01*
X1270224Y-28958511D01*
X1270228Y-28958506D01*
X1398535Y-28830198D01*
X1459856Y-28796715D01*
X1472311Y-28794663D01*
X1559255Y-28784868D01*
X1729522Y-28725289D01*
X1882262Y-28629316D01*
X2009816Y-28501762D01*
X2105789Y-28349022D01*
X2165368Y-28178755D01*
X2168555Y-28150476D01*
X2185565Y-27999500D01*
X2185565Y-27999496D01*
X2165369Y-27820250D01*
X2165368Y-27820245D01*
X2140074Y-27747959D01*
X2105789Y-27649978D01*
X2103372Y-27646132D01*
X2044742Y-27552822D01*
X2009816Y-27497238D01*
X1882262Y-27369684D01*
X1865042Y-27358864D01*
X1729523Y-27273711D01*
X1559254Y-27214131D01*
X1559249Y-27214130D01*
X1380004Y-27193935D01*
X1379996Y-27193935D01*
X1200750Y-27214130D01*
X1200745Y-27214131D01*
X1030476Y-27273711D01*
X877737Y-27369684D01*
X750184Y-27497237D01*
X654210Y-27649978D01*
X594630Y-27820251D01*
X586842Y-27889382D01*
X559776Y-27953797D01*
X502182Y-27993352D01*
X463622Y-27999500D01*
X379322Y-27999500D01*
X312283Y-27979815D01*
X266528Y-27927011D01*
X256102Y-27889384D01*
X248425Y-27821249D01*
X248424Y-27821245D01*
X205207Y-27697738D01*
X188845Y-27650978D01*
X188215Y-27649976D01*
X92871Y-27498237D01*
X-34683Y-27370682D01*
X-34685Y-27370681D01*
X-56113Y-27357217D01*
X-102404Y-27304882D01*
X-113051Y-27235829D01*
X-107182Y-27211272D01*
X-85531Y-27149398D01*
X-69038Y-27102267D01*
X-69036Y-27102257D01*
X-48841Y-26923011D01*
X-48841Y-26923004D01*
X-69036Y-26743758D01*
X-69037Y-26743753D01*
X-128617Y-26573484D01*
X-224590Y-26420745D01*
X-352143Y-26293192D01*
X-504882Y-26197219D01*
X-675151Y-26137639D01*
X-675156Y-26137638D01*
X-854402Y-26117443D01*
X-854410Y-26117443D01*
X-1033655Y-26137638D01*
X-1033660Y-26137639D01*
X-1203929Y-26197219D01*
X-1356668Y-26293192D01*
X-1409918Y-26346442D01*
X-1471241Y-26379927D01*
X-1540933Y-26374943D01*
X-1596866Y-26333071D01*
X-1614641Y-26299715D01*
X-1646054Y-26209939D01*
X-1742028Y-26057198D01*
X-1869581Y-25929645D01*
X-2022320Y-25833672D01*
X-2192589Y-25774092D01*
X-2192594Y-25774091D01*
X-2371840Y-25753896D01*
X-2371848Y-25753896D01*
X-2551093Y-25774091D01*
X-2551098Y-25774092D01*
X-2721367Y-25833672D01*
X-2874106Y-25929645D01*
X-2879549Y-25933986D01*
X-2880804Y-25932411D01*
X-2933465Y-25961166D01*
X-2959823Y-25964000D01*
X-3013221Y-25964000D01*
X-3080260Y-25944315D01*
X-3100902Y-25927681D01*
X-5863181Y-23165402D01*
X-5896666Y-23104079D01*
X-5899500Y-23077721D01*
X-5899500Y-22576085D01*
X-4129476Y-22576085D01*
X-4129476Y-22576092D01*
X-4113177Y-22720750D01*
X-4109279Y-22755344D01*
X-4049700Y-22925611D01*
X-3953727Y-23078351D01*
X-3826173Y-23205905D01*
X-3673433Y-23301878D01*
X-3503166Y-23361457D01*
X-3503163Y-23361457D01*
X-3503160Y-23361458D01*
X-3323915Y-23381654D01*
X-3323911Y-23381654D01*
X-3323907Y-23381654D01*
X-3144661Y-23361458D01*
X-3144656Y-23361457D01*
X-2974389Y-23301878D01*
X-2821649Y-23205905D01*
X-2694095Y-23078351D01*
X-2693699Y-23077721D01*
X-2598122Y-22925612D01*
X-2589159Y-22899996D01*
X-1285565Y-22899996D01*
X-1285565Y-22900003D01*
X-1265541Y-23077721D01*
X-1265368Y-23079255D01*
X-1205789Y-23249522D01*
X-1109816Y-23402262D01*
X-982262Y-23529816D01*
X-829522Y-23625789D01*
X-659255Y-23685368D01*
X-659252Y-23685368D01*
X-659249Y-23685369D01*
X-480004Y-23705565D01*
X-480000Y-23705565D01*
X-479996Y-23705565D01*
X-300750Y-23685369D01*
X-300745Y-23685368D01*
X-130478Y-23625789D01*
X-125340Y-23622561D01*
X-99278Y-23606185D01*
X22262Y-23529816D01*
X149816Y-23402262D01*
X245789Y-23249522D01*
X305368Y-23079255D01*
X305541Y-23077721D01*
X325565Y-22900003D01*
X325565Y-22899996D01*
X305369Y-22720750D01*
X305368Y-22720745D01*
X245789Y-22550478D01*
X149816Y-22397738D01*
X73154Y-22321076D01*
X39669Y-22259753D01*
X44653Y-22190061D01*
X86525Y-22134128D01*
X94863Y-22128401D01*
X99017Y-22125790D01*
X99022Y-22125789D01*
X251762Y-22029816D01*
X379316Y-21902262D01*
X475289Y-21749522D01*
X534868Y-21579255D01*
X534869Y-21579249D01*
X555065Y-21400003D01*
X555065Y-21399996D01*
X534869Y-21220750D01*
X534868Y-21220745D01*
X502470Y-21128156D01*
X475289Y-21050478D01*
X473528Y-21047676D01*
X379315Y-20897737D01*
X251762Y-20770184D01*
X99023Y-20674211D01*
X-71245Y-20614631D01*
X-71250Y-20614630D01*
X-250496Y-20594435D01*
X-250504Y-20594435D01*
X-429749Y-20614630D01*
X-429754Y-20614631D01*
X-600023Y-20674211D01*
X-752762Y-20770184D01*
X-880315Y-20897737D01*
X-974528Y-21047676D01*
X-976289Y-21050478D01*
X-1003470Y-21128156D01*
X-1035868Y-21220745D01*
X-1035869Y-21220750D01*
X-1056065Y-21399996D01*
X-1056065Y-21400003D01*
X-1035869Y-21579249D01*
X-1035868Y-21579255D01*
X-976289Y-21749522D01*
X-880316Y-21902262D01*
X-803651Y-21978926D01*
X-770169Y-22040245D01*
X-775153Y-22109937D01*
X-817024Y-22165871D01*
X-825363Y-22171598D01*
X-829521Y-22174210D01*
X-829522Y-22174211D01*
X-982262Y-22270184D01*
X-1109816Y-22397738D01*
X-1205789Y-22550478D01*
X-1265368Y-22720745D01*
X-1265369Y-22720750D01*
X-1285565Y-22899996D01*
X-2589159Y-22899996D01*
X-2538542Y-22755343D01*
X-2538541Y-22755338D01*
X-2518346Y-22576092D01*
X-2518346Y-22576085D01*
X-2538541Y-22396839D01*
X-2538542Y-22396834D01*
X-2598122Y-22226565D01*
X-2694095Y-22073826D01*
X-2821648Y-21946273D01*
X-2974387Y-21850300D01*
X-3144656Y-21790720D01*
X-3144661Y-21790719D01*
X-3323907Y-21770524D01*
X-3323915Y-21770524D01*
X-3503160Y-21790719D01*
X-3503165Y-21790720D01*
X-3673434Y-21850300D01*
X-3756130Y-21902262D01*
X-3826173Y-21946273D01*
X-3953727Y-22073827D01*
X-3986377Y-22125789D01*
X-4049699Y-22226565D01*
X-4109279Y-22396834D01*
X-4109280Y-22396839D01*
X-4129476Y-22576085D01*
X-5899500Y-22576085D01*
X-5899500Y-21783787D01*
X-5879815Y-21716748D01*
X-5827011Y-21670993D01*
X-5757853Y-21661049D01*
X-5709526Y-21678794D01*
X-5674522Y-21700789D01*
X-5504255Y-21760368D01*
X-5504252Y-21760368D01*
X-5504249Y-21760369D01*
X-5325004Y-21780565D01*
X-5325000Y-21780565D01*
X-5324996Y-21780565D01*
X-5145750Y-21760369D01*
X-5145745Y-21760368D01*
X-5114749Y-21749522D01*
X-4975478Y-21700789D01*
X-4822738Y-21604816D01*
X-4695184Y-21477262D01*
X-4599211Y-21324523D01*
X-4539631Y-21154254D01*
X-4539630Y-21154249D01*
X-4519435Y-20975003D01*
X-4519435Y-20974996D01*
X-4539630Y-20795750D01*
X-4539631Y-20795745D01*
X-4599211Y-20625476D01*
X-4695184Y-20472737D01*
X-4822737Y-20345184D01*
X-4975476Y-20249211D01*
X-5145745Y-20189631D01*
X-5145750Y-20189630D01*
X-5324996Y-20169435D01*
X-5325004Y-20169435D01*
X-5504249Y-20189630D01*
X-5504254Y-20189631D01*
X-5674525Y-20249212D01*
X-5709529Y-20271206D01*
X-5776766Y-20290206D01*
X-5843601Y-20269838D01*
X-5888814Y-20216569D01*
X-5899500Y-20166212D01*
X-5899500Y-20038063D01*
X2263355Y-20038063D01*
X2263355Y-20038070D01*
X2283550Y-20217316D01*
X2283551Y-20217321D01*
X2343131Y-20387590D01*
X2414478Y-20501137D01*
X2439104Y-20540329D01*
X2566658Y-20667883D01*
X2719398Y-20763856D01*
X2834106Y-20803994D01*
X2889665Y-20823435D01*
X2889670Y-20823436D01*
X3068916Y-20843632D01*
X3068920Y-20843632D01*
X3068924Y-20843632D01*
X3248169Y-20823436D01*
X3248172Y-20823435D01*
X3248175Y-20823435D01*
X3418442Y-20763856D01*
X3571182Y-20667883D01*
X3571185Y-20667880D01*
X3576630Y-20663539D01*
X3577631Y-20664795D01*
X3631542Y-20635349D01*
X3701234Y-20640325D01*
X3723887Y-20651518D01*
X3780383Y-20687017D01*
X3864661Y-20739972D01*
X4024051Y-20795745D01*
X4034928Y-20799551D01*
X4034933Y-20799552D01*
X4137831Y-20811145D01*
X4214183Y-20819748D01*
X4216112Y-20819530D01*
X4217354Y-20819748D01*
X4221147Y-20819748D01*
X4221147Y-20820412D01*
X4284932Y-20831581D01*
X4336314Y-20878927D01*
X4354000Y-20942750D01*
X4354000Y-24484444D01*
X4334315Y-24551483D01*
X4281511Y-24597238D01*
X4255781Y-24605734D01*
X4212431Y-24614948D01*
X4034702Y-24694076D01*
X3877305Y-24808433D01*
X3877302Y-24808435D01*
X3747129Y-24953009D01*
X3649857Y-25121488D01*
X3649856Y-25121489D01*
X3589738Y-25306516D01*
X3569402Y-25500000D01*
X3589738Y-25693483D01*
X3649856Y-25878510D01*
X3649857Y-25878511D01*
X3684492Y-25938500D01*
X3700965Y-26006400D01*
X3684492Y-26062500D01*
X3650317Y-26121692D01*
X3650316Y-26121693D01*
X3608628Y-26249999D01*
X3608628Y-26250000D01*
X3917441Y-26250000D01*
X3984480Y-26269685D01*
X3990319Y-26273676D01*
X4034701Y-26305922D01*
X4105000Y-26337220D01*
X4158236Y-26382469D01*
X4178559Y-26449318D01*
X4159515Y-26516542D01*
X4107150Y-26562798D01*
X4054569Y-26574500D01*
X4027131Y-26574500D01*
X4027123Y-26574501D01*
X3967516Y-26580908D01*
X3832671Y-26631202D01*
X3832664Y-26631206D01*
X3710355Y-26722768D01*
X3708680Y-26720531D01*
X3659904Y-26747166D01*
X3633546Y-26750000D01*
X3608628Y-26750000D01*
X3620129Y-26785399D01*
X3622124Y-26855240D01*
X3618380Y-26867048D01*
X3580909Y-26967514D01*
X3580908Y-26967516D01*
X3574501Y-27027116D01*
X3574500Y-27027135D01*
X3574500Y-27586607D01*
X3554815Y-27653646D01*
X3502011Y-27699401D01*
X3436617Y-27709827D01*
X3300004Y-27694435D01*
X3299996Y-27694435D01*
X3120750Y-27714630D01*
X3120745Y-27714631D01*
X2950476Y-27774211D01*
X2797737Y-27870184D01*
X2670184Y-27997737D01*
X2574211Y-28150476D01*
X2514631Y-28320745D01*
X2514630Y-28320750D01*
X2494435Y-28499996D01*
X2494435Y-28500003D01*
X2514630Y-28679249D01*
X2514631Y-28679254D01*
X2574211Y-28849523D01*
X2659569Y-28985368D01*
X2670184Y-29002262D01*
X2797738Y-29129816D01*
X2950478Y-29225789D01*
X3120745Y-29285368D01*
X3120750Y-29285369D01*
X3299996Y-29305565D01*
X3300000Y-29305565D01*
X3300004Y-29305565D01*
X3479249Y-29285369D01*
X3479252Y-29285368D01*
X3479255Y-29285368D01*
X3649522Y-29225789D01*
X3802262Y-29129816D01*
X3929816Y-29002262D01*
X4025789Y-28849522D01*
X4085368Y-28679255D01*
X4101552Y-28535615D01*
X4128618Y-28471202D01*
X4186213Y-28431647D01*
X4224772Y-28425499D01*
X4972871Y-28425499D01*
X4972872Y-28425499D01*
X5032483Y-28419091D01*
X5167331Y-28368796D01*
X5282546Y-28282546D01*
X5344343Y-28199996D01*
X5694435Y-28199996D01*
X5694435Y-28200003D01*
X5714630Y-28379249D01*
X5714631Y-28379254D01*
X5774211Y-28549523D01*
X5824348Y-28629315D01*
X5870184Y-28702262D01*
X5997738Y-28829816D01*
X6150478Y-28925789D01*
X6320745Y-28985368D01*
X6320750Y-28985369D01*
X6499996Y-29005565D01*
X6500000Y-29005565D01*
X6500004Y-29005565D01*
X6679249Y-28985369D01*
X6679252Y-28985368D01*
X6679255Y-28985368D01*
X6849522Y-28925789D01*
X7002262Y-28829816D01*
X7129816Y-28702262D01*
X7225789Y-28549522D01*
X7285368Y-28379255D01*
X7285369Y-28379249D01*
X7305565Y-28200003D01*
X7305565Y-28199996D01*
X7285369Y-28020750D01*
X7285368Y-28020745D01*
X7277645Y-27998675D01*
X7225789Y-27850478D01*
X7206795Y-27820250D01*
X7161372Y-27747959D01*
X7129816Y-27697738D01*
X7002262Y-27570184D01*
X6974631Y-27552822D01*
X6849523Y-27474211D01*
X6679254Y-27414631D01*
X6679249Y-27414630D01*
X6500004Y-27394435D01*
X6499996Y-27394435D01*
X6320750Y-27414630D01*
X6320745Y-27414631D01*
X6150476Y-27474211D01*
X5997737Y-27570184D01*
X5870184Y-27697737D01*
X5774211Y-27850476D01*
X5714631Y-28020745D01*
X5714630Y-28020750D01*
X5694435Y-28199996D01*
X5344343Y-28199996D01*
X5368796Y-28167331D01*
X5419091Y-28032483D01*
X5425500Y-27972873D01*
X5425499Y-27745096D01*
X5445183Y-27678057D01*
X5461813Y-27657420D01*
X5713006Y-27406228D01*
X5713011Y-27406224D01*
X5723214Y-27396020D01*
X5723216Y-27396020D01*
X5835020Y-27284216D01*
X5899717Y-27172157D01*
X5914077Y-27147285D01*
X5955001Y-26994557D01*
X5955001Y-26836443D01*
X5955001Y-26828848D01*
X5955000Y-26828830D01*
X5955000Y-25127525D01*
X8549500Y-25127525D01*
X8549500Y-25272475D01*
X8587016Y-25412485D01*
X8587017Y-25412488D01*
X8659488Y-25538011D01*
X8659490Y-25538013D01*
X8659491Y-25538015D01*
X8761985Y-25640509D01*
X8761986Y-25640510D01*
X8761988Y-25640511D01*
X8887511Y-25712982D01*
X8887512Y-25712982D01*
X8887515Y-25712984D01*
X9027525Y-25750500D01*
X9027528Y-25750500D01*
X9172472Y-25750500D01*
X9172475Y-25750500D01*
X9312485Y-25712984D01*
X9438015Y-25640509D01*
X9540509Y-25538015D01*
X9612984Y-25412485D01*
X9650500Y-25272475D01*
X9650500Y-25127525D01*
X9612984Y-24987515D01*
X9593061Y-24953008D01*
X9540511Y-24861988D01*
X9540506Y-24861982D01*
X9438017Y-24759493D01*
X9438011Y-24759488D01*
X9312488Y-24687017D01*
X9312489Y-24687017D01*
X9293407Y-24681904D01*
X9172475Y-24649500D01*
X9027525Y-24649500D01*
X8906593Y-24681904D01*
X8887511Y-24687017D01*
X8761988Y-24759488D01*
X8761982Y-24759493D01*
X8659493Y-24861982D01*
X8659488Y-24861988D01*
X8587017Y-24987511D01*
X8587016Y-24987515D01*
X8549500Y-25127525D01*
X5955000Y-25127525D01*
X5955000Y-21240950D01*
X5974685Y-21173911D01*
X6027489Y-21128156D01*
X6065117Y-21117730D01*
X6158068Y-21107257D01*
X6158071Y-21107256D01*
X6158074Y-21107256D01*
X6328341Y-21047677D01*
X6481081Y-20951704D01*
X6608635Y-20824150D01*
X6704608Y-20671410D01*
X6764187Y-20501143D01*
X6764188Y-20501137D01*
X6784384Y-20321891D01*
X6784384Y-20321884D01*
X6764188Y-20142638D01*
X6764187Y-20142633D01*
X6704607Y-19972364D01*
X6608634Y-19819625D01*
X6481081Y-19692072D01*
X6328342Y-19596099D01*
X6158073Y-19536519D01*
X6158069Y-19536518D01*
X6065116Y-19526045D01*
X6000702Y-19498978D01*
X5961147Y-19441383D01*
X5955000Y-19402825D01*
X5955000Y-16996082D01*
X5955001Y-16996069D01*
X5955001Y-16827968D01*
X5955001Y-16827966D01*
X5914077Y-16675238D01*
X5900983Y-16652559D01*
X5847000Y-16559057D01*
X5835020Y-16538306D01*
X5723216Y-16426502D01*
X5723214Y-16426501D01*
X5711857Y-16415143D01*
X5689820Y-16393106D01*
X5656336Y-16331782D01*
X5653503Y-16305426D01*
X5653503Y-16299996D01*
X8194435Y-16299996D01*
X8194435Y-16300003D01*
X8214630Y-16479249D01*
X8214631Y-16479254D01*
X8274211Y-16649523D01*
X8313555Y-16712138D01*
X8370184Y-16802262D01*
X8497738Y-16929816D01*
X8650478Y-17025789D01*
X8753346Y-17061784D01*
X8820745Y-17085368D01*
X8820750Y-17085369D01*
X8999996Y-17105565D01*
X9000000Y-17105565D01*
X9000004Y-17105565D01*
X9179249Y-17085369D01*
X9179252Y-17085368D01*
X9179255Y-17085368D01*
X9349522Y-17025789D01*
X9502262Y-16929816D01*
X9629816Y-16802262D01*
X9725789Y-16649522D01*
X9785368Y-16479255D01*
X9785369Y-16479249D01*
X9805565Y-16300003D01*
X9805565Y-16299996D01*
X9785369Y-16120750D01*
X9785368Y-16120745D01*
X9736832Y-15982037D01*
X9725789Y-15950478D01*
X9629816Y-15797738D01*
X9502262Y-15670184D01*
X9349523Y-15574211D01*
X9179254Y-15514631D01*
X9179249Y-15514630D01*
X9000004Y-15494435D01*
X8999996Y-15494435D01*
X8820750Y-15514630D01*
X8820745Y-15514631D01*
X8650476Y-15574211D01*
X8497737Y-15670184D01*
X8370184Y-15797737D01*
X8274211Y-15950476D01*
X8214631Y-16120745D01*
X8214630Y-16120750D01*
X8194435Y-16299996D01*
X5653503Y-16299996D01*
X5653503Y-15643545D01*
X5673188Y-15576506D01*
X5725992Y-15530751D01*
X5763620Y-15520325D01*
X5785659Y-15517841D01*
X5858431Y-15509643D01*
X5858434Y-15509642D01*
X5858437Y-15509642D01*
X6028704Y-15450063D01*
X6181444Y-15354090D01*
X6308998Y-15226536D01*
X6404971Y-15073796D01*
X6464550Y-14903529D01*
X6464551Y-14903523D01*
X6484747Y-14724277D01*
X6484747Y-14724270D01*
X6464551Y-14545024D01*
X6464550Y-14545019D01*
X6404970Y-14374750D01*
X6365764Y-14312354D01*
X6308998Y-14222012D01*
X6181444Y-14094458D01*
X6181407Y-14094435D01*
X6028706Y-13998486D01*
X6028705Y-13998485D01*
X5995225Y-13986770D01*
X5938449Y-13946048D01*
X5919140Y-13910686D01*
X5872580Y-13777623D01*
X5776607Y-13624883D01*
X5649053Y-13497329D01*
X5496314Y-13401356D01*
X5326045Y-13341776D01*
X5326041Y-13341775D01*
X5160616Y-13323137D01*
X5096202Y-13296071D01*
X5056647Y-13238476D01*
X5050500Y-13199917D01*
X5050500Y-12621955D01*
X5070185Y-12554916D01*
X5122989Y-12509161D01*
X5160615Y-12498735D01*
X5193568Y-12495022D01*
X5279250Y-12485369D01*
X5279253Y-12485368D01*
X5279255Y-12485368D01*
X5449522Y-12425789D01*
X5457648Y-12420682D01*
X5524885Y-12401681D01*
X5591720Y-12422047D01*
X5636936Y-12475314D01*
X5646843Y-12511791D01*
X5653961Y-12574970D01*
X5653962Y-12574974D01*
X5713542Y-12745243D01*
X5754543Y-12810495D01*
X5809515Y-12897982D01*
X5937069Y-13025536D01*
X6089809Y-13121509D01*
X6260076Y-13181088D01*
X6260081Y-13181089D01*
X6439327Y-13201285D01*
X6439331Y-13201285D01*
X6439335Y-13201285D01*
X6618580Y-13181089D01*
X6618583Y-13181088D01*
X6618586Y-13181088D01*
X6788853Y-13121509D01*
X6941593Y-13025536D01*
X7069147Y-12897982D01*
X7165120Y-12745242D01*
X7224699Y-12574975D01*
X7227459Y-12550478D01*
X7244896Y-12395723D01*
X7244896Y-12395716D01*
X7224700Y-12216470D01*
X7224699Y-12216465D01*
X7165119Y-12046196D01*
X7069146Y-11893457D01*
X6941593Y-11765904D01*
X6788854Y-11669931D01*
X6618585Y-11610351D01*
X6618580Y-11610350D01*
X6439335Y-11590155D01*
X6439327Y-11590155D01*
X6260081Y-11610350D01*
X6260076Y-11610351D01*
X6089807Y-11669931D01*
X6081673Y-11675042D01*
X6014435Y-11694037D01*
X5947601Y-11673666D01*
X5902390Y-11620396D01*
X5892487Y-11583927D01*
X5885369Y-11520749D01*
X5885368Y-11520745D01*
X5825788Y-11350476D01*
X5776776Y-11272475D01*
X5729816Y-11197738D01*
X5602262Y-11070184D01*
X5527922Y-11023473D01*
X5449523Y-10974211D01*
X5279254Y-10914631D01*
X5279249Y-10914630D01*
X5100004Y-10894435D01*
X5099996Y-10894435D01*
X4920750Y-10914630D01*
X4920737Y-10914633D01*
X4750481Y-10974209D01*
X4714045Y-10997102D01*
X4646807Y-11016100D01*
X4579973Y-10995730D01*
X4560395Y-10979787D01*
X4476527Y-10895919D01*
X4323788Y-10799946D01*
X4153519Y-10740366D01*
X4153514Y-10740365D01*
X3974269Y-10720170D01*
X3974261Y-10720170D01*
X3795015Y-10740365D01*
X3795010Y-10740366D01*
X3624741Y-10799946D01*
X3472002Y-10895919D01*
X3344449Y-11023472D01*
X3248476Y-11176211D01*
X3188896Y-11346480D01*
X3188895Y-11346485D01*
X3168700Y-11525731D01*
X3168700Y-11525738D01*
X3188895Y-11704984D01*
X3188896Y-11704989D01*
X3248476Y-11875258D01*
X3259912Y-11893458D01*
X3344449Y-12027997D01*
X3472003Y-12155551D01*
X3624743Y-12251524D01*
X3766456Y-12301111D01*
X3823230Y-12341831D01*
X3848978Y-12406784D01*
X3849500Y-12418152D01*
X3849500Y-16481537D01*
X3849499Y-16481555D01*
X3849499Y-16647261D01*
X3849498Y-16647261D01*
X3888044Y-16791115D01*
X3890423Y-16799992D01*
X3911968Y-16837308D01*
X3950309Y-16903718D01*
X3969479Y-16936922D01*
X4081285Y-17048728D01*
X4317681Y-17285123D01*
X4351166Y-17346446D01*
X4354000Y-17372804D01*
X4354000Y-19085615D01*
X4334315Y-19152654D01*
X4281511Y-19198409D01*
X4221146Y-19208035D01*
X4221146Y-19208618D01*
X4217492Y-19208618D01*
X4216125Y-19208836D01*
X4214189Y-19208618D01*
X4214179Y-19208618D01*
X4034933Y-19228813D01*
X4034928Y-19228814D01*
X3864659Y-19288394D01*
X3711917Y-19384369D01*
X3706473Y-19388711D01*
X3705474Y-19387458D01*
X3651530Y-19416907D01*
X3581839Y-19411913D01*
X3559215Y-19400731D01*
X3418443Y-19312278D01*
X3248174Y-19252698D01*
X3248169Y-19252697D01*
X3068924Y-19232502D01*
X3068916Y-19232502D01*
X2889670Y-19252697D01*
X2889665Y-19252698D01*
X2719396Y-19312278D01*
X2566657Y-19408251D01*
X2439104Y-19535804D01*
X2343131Y-19688543D01*
X2283551Y-19858812D01*
X2283550Y-19858817D01*
X2263355Y-20038063D01*
X-5899500Y-20038063D01*
X-5899500Y-18779565D01*
X-5879815Y-18712526D01*
X-5827011Y-18666771D01*
X-5775500Y-18655565D01*
X-5769997Y-18655565D01*
X-5590750Y-18635369D01*
X-5590745Y-18635368D01*
X-5420478Y-18575789D01*
X-5388401Y-18555634D01*
X-5354251Y-18534176D01*
X-5267738Y-18479816D01*
X-5140184Y-18352262D01*
X-5091851Y-18275341D01*
X-5044210Y-18199521D01*
X-5022036Y-18136150D01*
X-4981314Y-18079374D01*
X-4916361Y-18053626D01*
X-4847800Y-18067082D01*
X-4839036Y-18072102D01*
X-4784576Y-18106321D01*
X-4738287Y-18158656D01*
X-4727639Y-18227709D01*
X-4756014Y-18291557D01*
X-4762869Y-18298995D01*
X-4845312Y-18381438D01*
X-4941285Y-18534178D01*
X-4943489Y-18540478D01*
X-5000864Y-18704445D01*
X-5000865Y-18704450D01*
X-5021061Y-18883696D01*
X-5021061Y-18883703D01*
X-5020351Y-18890003D01*
X-5000864Y-19062955D01*
X-4941285Y-19233222D01*
X-4845312Y-19385962D01*
X-4717758Y-19513516D01*
X-4565018Y-19609489D01*
X-4394751Y-19669068D01*
X-4394748Y-19669068D01*
X-4394745Y-19669069D01*
X-4215500Y-19689265D01*
X-4215496Y-19689265D01*
X-4215492Y-19689265D01*
X-4036246Y-19669069D01*
X-4036241Y-19669068D01*
X-3865974Y-19609489D01*
X-3865972Y-19609488D01*
X-3831177Y-19587625D01*
X-3763940Y-19568625D01*
X-3699234Y-19587625D01*
X-3654413Y-19615789D01*
X-3550731Y-19652068D01*
X-3484153Y-19675366D01*
X-3484149Y-19675366D01*
X-3484146Y-19675368D01*
X-3484142Y-19675368D01*
X-3484140Y-19675369D01*
X-3304895Y-19695565D01*
X-3304891Y-19695565D01*
X-3304887Y-19695565D01*
X-3125641Y-19675369D01*
X-3125636Y-19675368D01*
X-3125630Y-19675366D01*
X-2955369Y-19615789D01*
X-2945342Y-19609489D01*
X-2880308Y-19568625D01*
X-2802629Y-19519816D01*
X-2675075Y-19392262D01*
X-2670114Y-19384367D01*
X-2579102Y-19239523D01*
X-2519522Y-19069254D01*
X-2519521Y-19069249D01*
X-2499326Y-18890003D01*
X-2499326Y-18889996D01*
X-2519521Y-18710750D01*
X-2519522Y-18710745D01*
X-2579102Y-18540476D01*
X-2666222Y-18401826D01*
X-2685222Y-18334589D01*
X-2664854Y-18267754D01*
X-2611586Y-18222540D01*
X-2542330Y-18213303D01*
X-2520274Y-18218812D01*
X-2478917Y-18233284D01*
X-2420887Y-18253590D01*
X-2420884Y-18253590D01*
X-2420883Y-18253591D01*
X-2420880Y-18253591D01*
X-2420877Y-18253592D01*
X-2241632Y-18273788D01*
X-2241628Y-18273788D01*
X-2241624Y-18273788D01*
X-2062378Y-18253592D01*
X-2062373Y-18253591D01*
X-2062370Y-18253590D01*
X-1892106Y-18194012D01*
X-1886446Y-18190456D01*
X-1805208Y-18139410D01*
X-1739366Y-18098039D01*
X-1611812Y-17970485D01*
X-1583743Y-17925814D01*
X1229093Y-17925814D01*
X1229093Y-17925821D01*
X1249288Y-18105067D01*
X1249289Y-18105072D01*
X1308869Y-18275341D01*
X1401282Y-18422415D01*
X1404842Y-18428080D01*
X1532396Y-18555634D01*
X1685136Y-18651607D01*
X1836138Y-18704445D01*
X1855403Y-18711186D01*
X1855408Y-18711187D01*
X2034654Y-18731383D01*
X2034658Y-18731383D01*
X2034662Y-18731383D01*
X2213907Y-18711187D01*
X2213910Y-18711186D01*
X2213913Y-18711186D01*
X2384180Y-18651607D01*
X2536920Y-18555634D01*
X2664474Y-18428080D01*
X2760447Y-18275340D01*
X2820026Y-18105073D01*
X2821672Y-18090467D01*
X2840223Y-17925821D01*
X2840223Y-17925814D01*
X2820027Y-17746568D01*
X2820026Y-17746563D01*
X2808024Y-17712262D01*
X2760447Y-17576296D01*
X2664474Y-17423556D01*
X2536920Y-17296002D01*
X2525733Y-17288973D01*
X2384181Y-17200029D01*
X2213912Y-17140449D01*
X2213907Y-17140448D01*
X2034662Y-17120253D01*
X2034654Y-17120253D01*
X1855408Y-17140448D01*
X1855403Y-17140449D01*
X1685134Y-17200029D01*
X1532395Y-17296002D01*
X1404842Y-17423555D01*
X1308869Y-17576294D01*
X1249289Y-17746563D01*
X1249288Y-17746568D01*
X1229093Y-17925814D01*
X-1583743Y-17925814D01*
X-1529707Y-17839816D01*
X-1515839Y-17817746D01*
X-1456259Y-17647477D01*
X-1456258Y-17647472D01*
X-1436063Y-17468226D01*
X-1436063Y-17468219D01*
X-1456258Y-17288973D01*
X-1456259Y-17288968D01*
X-1516586Y-17116566D01*
X-1520147Y-17046787D01*
X-1504538Y-17009640D01*
X-1474210Y-16961373D01*
X-1414634Y-16791115D01*
X-1414631Y-16791102D01*
X-1394436Y-16611856D01*
X-1394436Y-16611849D01*
X-1414631Y-16432603D01*
X-1414632Y-16432598D01*
X-1474212Y-16262329D01*
X-1570185Y-16109590D01*
X-1697738Y-15982037D01*
X-1850477Y-15886064D01*
X-2020746Y-15826484D01*
X-2020751Y-15826483D01*
X-2199997Y-15806288D01*
X-2200005Y-15806288D01*
X-2379250Y-15826483D01*
X-2379255Y-15826484D01*
X-2549524Y-15886064D01*
X-2695420Y-15977737D01*
X-2702263Y-15982037D01*
X-2829817Y-16109591D01*
X-2925790Y-16262331D01*
X-2950092Y-16331782D01*
X-2985369Y-16432598D01*
X-2985370Y-16432603D01*
X-3005566Y-16611849D01*
X-3005566Y-16611856D01*
X-2985370Y-16791102D01*
X-2985367Y-16791115D01*
X-2948256Y-16897170D01*
X-2925791Y-16961373D01*
X-2925043Y-16963509D01*
X-2921480Y-17033287D01*
X-2937091Y-17070437D01*
X-2967416Y-17118698D01*
X-3026996Y-17288968D01*
X-3026997Y-17288973D01*
X-3047193Y-17468219D01*
X-3047193Y-17468226D01*
X-3030410Y-17617181D01*
X-3026996Y-17647478D01*
X-2967417Y-17817745D01*
X-2967416Y-17817747D01*
X-2953549Y-17839816D01*
X-2888541Y-17943276D01*
X-2880297Y-17956395D01*
X-2861296Y-18023632D01*
X-2881663Y-18090467D01*
X-2934931Y-18135682D01*
X-3004187Y-18144920D01*
X-3026244Y-18139410D01*
X-3125633Y-18104632D01*
X-3125641Y-18104630D01*
X-3304887Y-18084435D01*
X-3304895Y-18084435D01*
X-3484140Y-18104630D01*
X-3484148Y-18104632D01*
X-3578459Y-18137633D01*
X-3648237Y-18141194D01*
X-3708865Y-18106465D01*
X-3741092Y-18044472D01*
X-3734687Y-17974896D01*
X-3716358Y-17943276D01*
X-3713897Y-17940190D01*
X-3712989Y-17938746D01*
X-3650827Y-17839816D01*
X-3617923Y-17787450D01*
X-3558343Y-17617181D01*
X-3558342Y-17617176D01*
X-3538147Y-17437930D01*
X-3538147Y-17437923D01*
X-3558342Y-17258677D01*
X-3558343Y-17258672D01*
X-3617923Y-17088403D01*
X-3713896Y-16935664D01*
X-3841449Y-16808111D01*
X-3994188Y-16712138D01*
X-4164457Y-16652558D01*
X-4164462Y-16652557D01*
X-4343708Y-16632362D01*
X-4343716Y-16632362D01*
X-4522961Y-16652557D01*
X-4522966Y-16652558D01*
X-4693235Y-16712138D01*
X-4818914Y-16791108D01*
X-4845974Y-16808111D01*
X-4973528Y-16935665D01*
X-5018296Y-17006913D01*
X-5069502Y-17088406D01*
X-5091675Y-17151775D01*
X-5132396Y-17208552D01*
X-5197349Y-17234300D01*
X-5265910Y-17220844D01*
X-5274689Y-17215816D01*
X-5420476Y-17124211D01*
X-5590745Y-17064631D01*
X-5590750Y-17064630D01*
X-5769996Y-17044435D01*
X-5770004Y-17044435D01*
X-5950470Y-17064768D01*
X-6019292Y-17052713D01*
X-6052034Y-17029230D01*
X-6085195Y-16996069D01*
X-6131284Y-16949980D01*
X-6131286Y-16949978D01*
X-6373527Y-16707737D01*
X-6619798Y-16461465D01*
X-6653283Y-16400142D01*
X-6655337Y-16387668D01*
X-6665130Y-16300750D01*
X-6724710Y-16130478D01*
X-6820684Y-15977737D01*
X-6948237Y-15850184D01*
X-6948240Y-15850182D01*
X-7010823Y-15810858D01*
X-7057114Y-15758523D01*
X-7067761Y-15689469D01*
X-7039385Y-15625621D01*
X-7010823Y-15600872D01*
X-6897738Y-15529816D01*
X-6770184Y-15402262D01*
X-6739915Y-15354089D01*
X-6674211Y-15249523D01*
X-6614631Y-15079254D01*
X-6614630Y-15079249D01*
X-6594435Y-14900003D01*
X-6594435Y-14899996D01*
X-6614630Y-14720750D01*
X-6614631Y-14720745D01*
X-6674211Y-14550476D01*
X-6770184Y-14397737D01*
X-6897737Y-14270184D01*
X-7050476Y-14174211D01*
X-7220745Y-14114631D01*
X-7220750Y-14114630D01*
X-7399996Y-14094435D01*
X-7400004Y-14094435D01*
X-7579249Y-14114630D01*
X-7579254Y-14114631D01*
X-7749523Y-14174211D01*
X-7902262Y-14270184D01*
X-8029815Y-14397737D01*
X-8125788Y-14550476D01*
X-8185368Y-14720745D01*
X-8185369Y-14720750D01*
X-8205565Y-14899996D01*
X-8205565Y-14900003D01*
X-8185983Y-15073796D01*
X-8185368Y-15079255D01*
X-8125789Y-15249522D01*
X-8029816Y-15402262D01*
X-7902262Y-15529816D01*
X-7902259Y-15529817D01*
X-7902259Y-15529818D01*
X-7839678Y-15569140D01*
X-7793386Y-15621474D01*
X-7782737Y-15690528D01*
X-7811112Y-15754376D01*
X-7839677Y-15779128D01*
X-7952762Y-15850184D01*
X-8080315Y-15977737D01*
X-8176288Y-16130476D01*
X-8235868Y-16300745D01*
X-8235869Y-16300749D01*
X-8250388Y-16429616D01*
X-8277454Y-16494030D01*
X-8307634Y-16520725D01*
X-8402262Y-16580184D01*
X-8529816Y-16707738D01*
X-8582197Y-16791102D01*
X-8625788Y-16860476D01*
X-8685368Y-17030745D01*
X-8685369Y-17030750D01*
X-8705565Y-17209996D01*
X-11249500Y-17209996D01*
X-11249500Y-13440307D01*
X-6596958Y-13440307D01*
X-6596958Y-13440314D01*
X-6576762Y-13619560D01*
X-6576761Y-13619566D01*
X-6517182Y-13789833D01*
X-6421209Y-13942573D01*
X-6293655Y-14070127D01*
X-6140915Y-14166100D01*
X-5970648Y-14225679D01*
X-5970645Y-14225679D01*
X-5970642Y-14225680D01*
X-5791397Y-14245876D01*
X-5791393Y-14245876D01*
X-5791389Y-14245876D01*
X-5612143Y-14225680D01*
X-5612138Y-14225679D01*
X-5601658Y-14222012D01*
X-5441871Y-14166100D01*
X-5289131Y-14070127D01*
X-5161577Y-13942573D01*
X-5141539Y-13910683D01*
X-5065605Y-13789836D01*
X-5053663Y-13755708D01*
X-5012940Y-13698933D01*
X-4947987Y-13673187D01*
X-4895670Y-13679623D01*
X-4879255Y-13685368D01*
X-4879247Y-13685368D01*
X-4879247Y-13685369D01*
X-4700004Y-13705565D01*
X-4700000Y-13705565D01*
X-4699996Y-13705565D01*
X-4520750Y-13685369D01*
X-4520745Y-13685368D01*
X-4350478Y-13625789D01*
X-4349034Y-13624882D01*
X-4288080Y-13586582D01*
X-4197738Y-13529816D01*
X-4070184Y-13402262D01*
X-4069615Y-13401356D01*
X-3974211Y-13249523D01*
X-3914631Y-13079254D01*
X-3914630Y-13079249D01*
X-3894435Y-12900003D01*
X-3894435Y-12899996D01*
X-3914630Y-12720750D01*
X-3914631Y-12720745D01*
X-3974211Y-12550476D01*
X-4070184Y-12397737D01*
X-4197737Y-12270184D01*
X-4350476Y-12174211D01*
X-4520745Y-12114631D01*
X-4520750Y-12114630D01*
X-4699996Y-12094435D01*
X-4700004Y-12094435D01*
X-4879249Y-12114630D01*
X-4879254Y-12114631D01*
X-5049523Y-12174211D01*
X-5116769Y-12216465D01*
X-5202262Y-12270184D01*
X-5329816Y-12397738D01*
X-5377802Y-12474108D01*
X-5425790Y-12550479D01*
X-5437728Y-12584597D01*
X-5478449Y-12641374D01*
X-5543402Y-12667122D01*
X-5595722Y-12660686D01*
X-5612135Y-12654943D01*
X-5612139Y-12654942D01*
X-5791389Y-12634746D01*
X-5791397Y-12634746D01*
X-5970642Y-12654941D01*
X-5970647Y-12654942D01*
X-6140916Y-12714522D01*
X-6293655Y-12810495D01*
X-6421209Y-12938049D01*
X-6517182Y-13090789D01*
X-6555846Y-13201285D01*
X-6576761Y-13261056D01*
X-6576762Y-13261061D01*
X-6596958Y-13440307D01*
X-11249500Y-13440307D01*
X-11249500Y-11837870D01*
X-11229815Y-11770831D01*
X-11177011Y-11725076D01*
X-11107853Y-11715132D01*
X-11093426Y-11718090D01*
X-10972475Y-11750500D01*
X-10972472Y-11750500D01*
X-10827528Y-11750500D01*
X-10827525Y-11750500D01*
X-10687515Y-11712984D01*
X-10687512Y-11712982D01*
X-10687511Y-11712982D01*
X-10561988Y-11640511D01*
X-10561986Y-11640510D01*
X-10561985Y-11640509D01*
X-10459491Y-11538015D01*
X-10459490Y-11538013D01*
X-10459488Y-11538011D01*
X-10387017Y-11412488D01*
X-10387016Y-11412485D01*
X-10349500Y-11272475D01*
X-10349500Y-11127525D01*
X-9650500Y-11127525D01*
X-9650500Y-11272475D01*
X-9612984Y-11412485D01*
X-9540509Y-11538015D01*
X-9438015Y-11640509D01*
X-9312488Y-11712982D01*
X-9312487Y-11712982D01*
X-9312485Y-11712984D01*
X-9172475Y-11750500D01*
X-9172472Y-11750500D01*
X-9027528Y-11750500D01*
X-9027525Y-11750500D01*
X-8887515Y-11712984D01*
X-8887512Y-11712982D01*
X-8887511Y-11712982D01*
X-8761988Y-11640511D01*
X-8761986Y-11640510D01*
X-8761985Y-11640509D01*
X-8659491Y-11538015D01*
X-8659490Y-11538013D01*
X-8659488Y-11538011D01*
X-8587017Y-11412488D01*
X-8587016Y-11412485D01*
X-8549500Y-11272475D01*
X-8549500Y-11127525D01*
X-8587016Y-10987515D01*
X-8587015Y-10987515D01*
X-8587017Y-10987511D01*
X-8659488Y-10861988D01*
X-8659493Y-10861982D01*
X-8761982Y-10759493D01*
X-8761988Y-10759488D01*
X-8887511Y-10687017D01*
X-8887510Y-10687017D01*
X-8929108Y-10675870D01*
X-9027525Y-10649500D01*
X-9172475Y-10649500D01*
X-9312485Y-10687016D01*
X-9312488Y-10687017D01*
X-9438011Y-10759488D01*
X-9438017Y-10759493D01*
X-9540506Y-10861982D01*
X-9540511Y-10861988D01*
X-9608522Y-10979787D01*
X-9612984Y-10987515D01*
X-9650500Y-11127525D01*
X-10349500Y-11127525D01*
X-10387016Y-10987515D01*
X-10387015Y-10987515D01*
X-10387017Y-10987511D01*
X-10459488Y-10861988D01*
X-10459493Y-10861982D01*
X-10561982Y-10759493D01*
X-10561988Y-10759488D01*
X-10687511Y-10687017D01*
X-10687510Y-10687017D01*
X-10729108Y-10675870D01*
X-10827525Y-10649500D01*
X-10972475Y-10649500D01*
X-11093406Y-10681903D01*
X-11163256Y-10680241D01*
X-11221119Y-10641079D01*
X-11248623Y-10576850D01*
X-11249500Y-10562129D01*
X-11249500Y-10109996D01*
X-2915565Y-10109996D01*
X-2915565Y-10110003D01*
X-2906551Y-10190003D01*
X-2895368Y-10289255D01*
X-2835789Y-10459522D01*
X-2739816Y-10612262D01*
X-2612262Y-10739816D01*
X-2459522Y-10835789D01*
X-2289255Y-10895368D01*
X-2289252Y-10895368D01*
X-2289249Y-10895369D01*
X-2110004Y-10915565D01*
X-2110000Y-10915565D01*
X-2109996Y-10915565D01*
X-1930750Y-10895369D01*
X-1930745Y-10895368D01*
X-1928079Y-10894435D01*
X-1760478Y-10835789D01*
X-1735055Y-10819815D01*
X-1608615Y-10740367D01*
X-1607738Y-10739816D01*
X-1480184Y-10612262D01*
X-1434478Y-10539522D01*
X-1384211Y-10459523D01*
X-1324631Y-10289254D01*
X-1324630Y-10289249D01*
X-1313448Y-10189996D01*
X464435Y-10189996D01*
X464435Y-10190003D01*
X484630Y-10369249D01*
X484631Y-10369254D01*
X544211Y-10539523D01*
X613315Y-10649500D01*
X640184Y-10692262D01*
X767738Y-10819816D01*
X793159Y-10835789D01*
X920121Y-10915565D01*
X920478Y-10915789D01*
X1090745Y-10975368D01*
X1090750Y-10975369D01*
X1269996Y-10995565D01*
X1270000Y-10995565D01*
X1270004Y-10995565D01*
X1449249Y-10975369D01*
X1449252Y-10975368D01*
X1449255Y-10975368D01*
X1619522Y-10915789D01*
X1772262Y-10819816D01*
X1899816Y-10692262D01*
X1995789Y-10539522D01*
X2055368Y-10369255D01*
X2064382Y-10289254D01*
X2075565Y-10190003D01*
X2075565Y-10189996D01*
X2055369Y-10010750D01*
X2055368Y-10010745D01*
X1995789Y-9840478D01*
X1899816Y-9687738D01*
X1772262Y-9560184D01*
X1619523Y-9464211D01*
X1449254Y-9404631D01*
X1449249Y-9404630D01*
X1270004Y-9384435D01*
X1269996Y-9384435D01*
X1090750Y-9404630D01*
X1090745Y-9404631D01*
X920476Y-9464211D01*
X767737Y-9560184D01*
X640184Y-9687737D01*
X544211Y-9840476D01*
X484631Y-10010745D01*
X484630Y-10010750D01*
X464435Y-10189996D01*
X-1313448Y-10189996D01*
X-1304435Y-10110003D01*
X-1304435Y-10109996D01*
X-1324630Y-9930750D01*
X-1324631Y-9930745D01*
X-1384211Y-9760476D01*
X-1480184Y-9607737D01*
X-1607737Y-9480184D01*
X-1760476Y-9384211D01*
X-1930745Y-9324631D01*
X-1930750Y-9324630D01*
X-2109996Y-9304435D01*
X-2110004Y-9304435D01*
X-2289249Y-9324630D01*
X-2289254Y-9324631D01*
X-2459523Y-9384211D01*
X-2586841Y-9464211D01*
X-2612262Y-9480184D01*
X-2739816Y-9607738D01*
X-2835789Y-9760478D01*
X-2863782Y-9840478D01*
X-2895368Y-9930745D01*
X-2895369Y-9930750D01*
X-2915565Y-10109996D01*
X-11249500Y-10109996D01*
X-11249500Y-6399996D01*
X-3405565Y-6399996D01*
X-3405565Y-6400003D01*
X-3385369Y-6579249D01*
X-3385366Y-6579262D01*
X-3339953Y-6709045D01*
X-3336391Y-6778824D01*
X-3339953Y-6790955D01*
X-3385366Y-6920737D01*
X-3385369Y-6920750D01*
X-3405565Y-7099996D01*
X-3405565Y-7100003D01*
X-3386132Y-7272475D01*
X-3385368Y-7279255D01*
X-3325789Y-7449522D01*
X-3229816Y-7602262D01*
X-3102262Y-7729816D01*
X-2949522Y-7825789D01*
X-2779255Y-7885368D01*
X-2779252Y-7885368D01*
X-2779249Y-7885369D01*
X-2600004Y-7905565D01*
X-2600000Y-7905565D01*
X-2599996Y-7905565D01*
X-2420750Y-7885369D01*
X-2420746Y-7885368D01*
X-2420745Y-7885368D01*
X-2420743Y-7885367D01*
X-2420737Y-7885366D01*
X-2290955Y-7839953D01*
X-2221176Y-7836391D01*
X-2209045Y-7839953D01*
X-2079262Y-7885366D01*
X-2079258Y-7885366D01*
X-2079255Y-7885368D01*
X-2079251Y-7885368D01*
X-2079249Y-7885369D01*
X-1900004Y-7905565D01*
X-1900000Y-7905565D01*
X-1899996Y-7905565D01*
X-1720750Y-7885369D01*
X-1720745Y-7885368D01*
X-1720739Y-7885366D01*
X-1550478Y-7825789D01*
X-1546274Y-7823148D01*
X-1444057Y-7758920D01*
X-1397738Y-7729816D01*
X-1270184Y-7602262D01*
X-1229812Y-7538011D01*
X-1174211Y-7449523D01*
X-1114631Y-7279254D01*
X-1114630Y-7279249D01*
X-1097536Y-7127525D01*
X8549500Y-7127525D01*
X8549500Y-7272475D01*
X8551317Y-7279255D01*
X8587017Y-7412488D01*
X8659488Y-7538011D01*
X8659490Y-7538013D01*
X8659491Y-7538015D01*
X8761985Y-7640509D01*
X8761986Y-7640510D01*
X8761988Y-7640511D01*
X8887511Y-7712982D01*
X8887512Y-7712982D01*
X8887515Y-7712984D01*
X9027525Y-7750500D01*
X9027528Y-7750500D01*
X9172472Y-7750500D01*
X9172475Y-7750500D01*
X9312485Y-7712984D01*
X9438015Y-7640509D01*
X9540509Y-7538015D01*
X9612984Y-7412485D01*
X9650500Y-7272475D01*
X9650500Y-7127525D01*
X9612984Y-6987515D01*
X9574432Y-6920742D01*
X9540511Y-6861988D01*
X9540506Y-6861982D01*
X9438017Y-6759493D01*
X9438011Y-6759488D01*
X9312488Y-6687017D01*
X9312489Y-6687017D01*
X9293407Y-6681904D01*
X9172475Y-6649500D01*
X9027525Y-6649500D01*
X8906593Y-6681904D01*
X8887511Y-6687017D01*
X8761988Y-6759488D01*
X8761982Y-6759493D01*
X8659493Y-6861982D01*
X8659488Y-6861988D01*
X8587017Y-6987511D01*
X8587016Y-6987515D01*
X8549500Y-7127525D01*
X-1097536Y-7127525D01*
X-1094435Y-7100003D01*
X-1094435Y-7099996D01*
X-1114630Y-6920750D01*
X-1114632Y-6920742D01*
X-1160047Y-6790954D01*
X-1163608Y-6721175D01*
X-1160047Y-6709046D01*
X-1114632Y-6579257D01*
X-1114630Y-6579249D01*
X-1094435Y-6400003D01*
X-1094435Y-6399996D01*
X-1114630Y-6220750D01*
X-1114631Y-6220745D01*
X-1174211Y-6050476D01*
X-1270184Y-5897737D01*
X-1397737Y-5770184D01*
X-1550476Y-5674211D01*
X-1720745Y-5614631D01*
X-1720750Y-5614630D01*
X-1899996Y-5594435D01*
X-1900004Y-5594435D01*
X-2079249Y-5614630D01*
X-2079257Y-5614632D01*
X-2209046Y-5660047D01*
X-2278825Y-5663608D01*
X-2290954Y-5660047D01*
X-2420742Y-5614632D01*
X-2420750Y-5614630D01*
X-2599996Y-5594435D01*
X-2600004Y-5594435D01*
X-2779249Y-5614630D01*
X-2779254Y-5614631D01*
X-2949523Y-5674211D01*
X-3102262Y-5770184D01*
X-3229816Y-5897738D01*
X-3284877Y-5985367D01*
X-3325788Y-6050476D01*
X-3385368Y-6220745D01*
X-3385369Y-6220750D01*
X-3405565Y-6399996D01*
X-11249500Y-6399996D01*
X-11249500Y-5469355D01*
X-11249244Y-5461394D01*
X-11235590Y-5249169D01*
X-11233550Y-5233379D01*
X-11227035Y-5199996D01*
X-691091Y-5199996D01*
X-691091Y-5200003D01*
X-670895Y-5379249D01*
X-670894Y-5379255D01*
X-611315Y-5549522D01*
X-515342Y-5702262D01*
X-387788Y-5829816D01*
X-235048Y-5925789D01*
X-64781Y-5985368D01*
X17397Y-5994626D01*
X81808Y-6021691D01*
X108502Y-6051870D01*
X184150Y-6172262D01*
X311704Y-6299816D01*
X464444Y-6395789D01*
X634711Y-6455368D01*
X634716Y-6455369D01*
X813962Y-6475565D01*
X813966Y-6475565D01*
X813970Y-6475565D01*
X993215Y-6455369D01*
X993218Y-6455368D01*
X993221Y-6455368D01*
X1163488Y-6395789D01*
X1316228Y-6299816D01*
X1443782Y-6172262D01*
X1539755Y-6019522D01*
X1599334Y-5849255D01*
X1599335Y-5849249D01*
X1619531Y-5670003D01*
X1619531Y-5669996D01*
X1599335Y-5490750D01*
X1599334Y-5490745D01*
X1573022Y-5415549D01*
X1539755Y-5320478D01*
X1443782Y-5167738D01*
X1316228Y-5040184D01*
X1228989Y-4985368D01*
X1163487Y-4944210D01*
X993215Y-4884630D01*
X911043Y-4875372D01*
X846629Y-4848305D01*
X819935Y-4818126D01*
X744290Y-4697738D01*
X616736Y-4570184D01*
X583853Y-4549522D01*
X463997Y-4474211D01*
X293728Y-4414631D01*
X293723Y-4414630D01*
X114478Y-4394435D01*
X114470Y-4394435D01*
X-64775Y-4414630D01*
X-64780Y-4414631D01*
X-235049Y-4474211D01*
X-354905Y-4549522D01*
X-387788Y-4570184D01*
X-515342Y-4697738D01*
X-572108Y-4788080D01*
X-604825Y-4840150D01*
X-611315Y-4850478D01*
X-658515Y-4985368D01*
X-670894Y-5020745D01*
X-670895Y-5020750D01*
X-691091Y-5199996D01*
X-11227035Y-5199996D01*
X-11193580Y-5028566D01*
X-11189534Y-5013168D01*
X-11123649Y-4815161D01*
X-11117663Y-4800408D01*
X-11026950Y-4612474D01*
X-11019122Y-4598609D01*
X-10905079Y-4423854D01*
X-10895540Y-4411107D01*
X-10760043Y-4252401D01*
X-10748949Y-4240981D01*
X-10703672Y-4200000D01*
X-10703668Y-4199996D01*
X-5605565Y-4199996D01*
X-5605565Y-4200003D01*
X-5585369Y-4379249D01*
X-5585368Y-4379255D01*
X-5525789Y-4549522D01*
X-5429816Y-4702262D01*
X-5302262Y-4829816D01*
X-5149522Y-4925789D01*
X-4979255Y-4985368D01*
X-4979252Y-4985368D01*
X-4979249Y-4985369D01*
X-4800004Y-5005565D01*
X-4800000Y-5005565D01*
X-4799996Y-5005565D01*
X-4620750Y-4985369D01*
X-4620745Y-4985368D01*
X-4450478Y-4925789D01*
X-4297738Y-4829816D01*
X-4170184Y-4702262D01*
X-4167341Y-4697737D01*
X-4074211Y-4549523D01*
X-4014631Y-4379254D01*
X-4014630Y-4379249D01*
X-3994435Y-4200003D01*
X-3994435Y-4199996D01*
X-4014630Y-4020750D01*
X-4014631Y-4020745D01*
X-4074211Y-3850476D01*
X-4170184Y-3697737D01*
X-4297737Y-3570184D01*
X-4450476Y-3474211D01*
X-4620745Y-3414631D01*
X-4620750Y-3414630D01*
X-4799996Y-3394435D01*
X-4800004Y-3394435D01*
X-4979249Y-3414630D01*
X-4979254Y-3414631D01*
X-5149523Y-3474211D01*
X-5302262Y-3570184D01*
X-5429816Y-3697738D01*
X-5525789Y-3850478D01*
X-5585368Y-4020745D01*
X-5585369Y-4020750D01*
X-5605565Y-4199996D01*
X-10703668Y-4199996D01*
X-10591270Y-4098263D01*
X-10585212Y-4093124D01*
X-6692138Y-999996D01*
X-4405565Y-999996D01*
X-4405565Y-1000003D01*
X-4385369Y-1179249D01*
X-4385368Y-1179255D01*
X-4325789Y-1349522D01*
X-4229816Y-1502262D01*
X-4102262Y-1629816D01*
X-3949522Y-1725789D01*
X-3779255Y-1785368D01*
X-3779252Y-1785368D01*
X-3779249Y-1785369D01*
X-3600004Y-1805565D01*
X-3600000Y-1805565D01*
X-3599996Y-1805565D01*
X-3420750Y-1785369D01*
X-3420745Y-1785368D01*
X-3250478Y-1725789D01*
X-3209429Y-1699996D01*
X-1156065Y-1699996D01*
X-1156065Y-1700003D01*
X-1144171Y-1805565D01*
X-1135868Y-1879255D01*
X-1076289Y-2049522D01*
X-980316Y-2202262D01*
X-852762Y-2329816D01*
X-700022Y-2425789D01*
X-529755Y-2485368D01*
X-529752Y-2485368D01*
X-529749Y-2485369D01*
X-350504Y-2505565D01*
X-350500Y-2505565D01*
X-350496Y-2505565D01*
X-171250Y-2485369D01*
X-171245Y-2485368D01*
X-148271Y-2477329D01*
X-978Y-2425789D01*
X42453Y-2398499D01*
X109687Y-2379498D01*
X149376Y-2386450D01*
X210422Y-2407811D01*
X274450Y-2430216D01*
X274460Y-2430218D01*
X403369Y-2444742D01*
X452371Y-2450263D01*
X516785Y-2477329D01*
X534779Y-2497662D01*
X535841Y-2496816D01*
X540184Y-2502262D01*
X667738Y-2629816D01*
X820478Y-2725789D01*
X990745Y-2785368D01*
X990750Y-2785369D01*
X1169996Y-2805565D01*
X1170000Y-2805565D01*
X1170004Y-2805565D01*
X1349249Y-2785369D01*
X1349252Y-2785368D01*
X1349255Y-2785368D01*
X1519522Y-2725789D01*
X1672262Y-2629816D01*
X1799816Y-2502262D01*
X1895789Y-2349522D01*
X1936639Y-2232777D01*
X1977359Y-2176004D01*
X2042312Y-2150256D01*
X2067564Y-2150514D01*
X2200178Y-2165456D01*
X2200181Y-2165456D01*
X2200185Y-2165456D01*
X2379430Y-2145260D01*
X2379433Y-2145259D01*
X2379436Y-2145259D01*
X2549703Y-2085680D01*
X2702443Y-1989707D01*
X2829997Y-1862153D01*
X2925970Y-1709413D01*
X2985549Y-1539146D01*
X2987622Y-1520750D01*
X3005746Y-1359894D01*
X3005746Y-1359887D01*
X2985550Y-1180641D01*
X2985549Y-1180636D01*
X2927602Y-1015033D01*
X2925970Y-1010369D01*
X2903250Y-974211D01*
X2831161Y-859482D01*
X2829997Y-857629D01*
X2702443Y-730075D01*
X2549704Y-634102D01*
X2379435Y-574522D01*
X2379430Y-574521D01*
X2200185Y-554326D01*
X2200177Y-554326D01*
X2020931Y-574521D01*
X2020926Y-574522D01*
X1850657Y-634102D01*
X1697918Y-730075D01*
X1570365Y-857628D01*
X1474390Y-1010371D01*
X1433541Y-1127111D01*
X1392820Y-1183887D01*
X1327867Y-1209634D01*
X1302617Y-1209376D01*
X1171338Y-1194585D01*
X1106924Y-1167519D01*
X1088934Y-1147183D01*
X1087869Y-1148033D01*
X1083525Y-1142586D01*
X955972Y-1015033D01*
X803233Y-919060D01*
X632964Y-859480D01*
X632959Y-859479D01*
X453714Y-839284D01*
X453706Y-839284D01*
X274460Y-859479D01*
X274447Y-859482D01*
X104192Y-919057D01*
X79493Y-934576D01*
X60754Y-946350D01*
X-6481Y-965349D01*
X-46169Y-958397D01*
X-171242Y-914632D01*
X-171250Y-914630D01*
X-350496Y-894435D01*
X-350504Y-894435D01*
X-529749Y-914630D01*
X-529754Y-914631D01*
X-700023Y-974211D01*
X-764990Y-1015033D01*
X-852762Y-1070184D01*
X-980316Y-1197738D01*
X-990931Y-1214632D01*
X-1075688Y-1349522D01*
X-1076289Y-1350478D01*
X-1135868Y-1520745D01*
X-1135869Y-1520750D01*
X-1156065Y-1699996D01*
X-3209429Y-1699996D01*
X-3097738Y-1629816D01*
X-2970184Y-1502262D01*
X-2880726Y-1359891D01*
X-2874211Y-1349523D01*
X-2814631Y-1179254D01*
X-2814630Y-1179249D01*
X-2794435Y-1000003D01*
X-2794435Y-999996D01*
X-2814630Y-820750D01*
X-2814631Y-820745D01*
X-2874211Y-650476D01*
X-2970184Y-497737D01*
X-3097737Y-370184D01*
X-3250476Y-274211D01*
X-3420745Y-214631D01*
X-3420750Y-214630D01*
X-3599996Y-194435D01*
X-3600004Y-194435D01*
X-3779249Y-214630D01*
X-3779254Y-214631D01*
X-3949523Y-274211D01*
X-4102262Y-370184D01*
X-4229816Y-497738D01*
X-4278062Y-574521D01*
X-4325788Y-650476D01*
X-4385368Y-820745D01*
X-4385369Y-820750D01*
X-4405565Y-999996D01*
X-6692138Y-999996D01*
X-5778650Y-274211D01*
X-4146473Y1022587D01*
X-4081739Y1048878D01*
X-4069336Y1049500D01*
X4069336Y1049500D01*
X4136375Y1029815D01*
G37*
G04 #@! TD.AperFunction*
M02*
