G04 #@! TF.GenerationSoftware,KiCad,Pcbnew,8.0.5*
G04 #@! TF.CreationDate,2024-11-16T16:19:56+03:00*
G04 #@! TF.ProjectId,USB_duck_v2,5553425f-6475-4636-9b5f-76322e6b6963,rev?*
G04 #@! TF.SameCoordinates,Original*
G04 #@! TF.FileFunction,Profile,NP*
%FSLAX46Y46*%
G04 Gerber Fmt 4.6, Leading zero omitted, Abs format (unit mm)*
G04 Created by KiCad (PCBNEW 8.0.5) date 2024-11-16 16:19:56*
%MOMM*%
%LPD*%
G01*
G04 APERTURE LIST*
G04 #@! TA.AperFunction,Profile*
%ADD10C,0.100000*%
G04 #@! TD*
G04 #@! TA.AperFunction,Profile*
%ADD11C,0.010000*%
G04 #@! TD*
G04 APERTURE END LIST*
D10*
X-7180006Y-36399750D02*
X-6520000Y-36400000D01*
X10744151Y-3899463D02*
X4200000Y1300000D01*
X11500000Y-26988025D02*
X11500000Y-5465377D01*
X-10744151Y-3899463D02*
X-4200000Y1300000D01*
X8000000Y-35600000D02*
G75*
G02*
X7180006Y-36399750I-800000J0D01*
G01*
X-7180006Y-36399750D02*
G75*
G02*
X-8000000Y-35600000I-19995J799749D01*
G01*
X10744151Y-3899463D02*
G75*
G02*
X11500018Y-5465377I-1244151J-1565937D01*
G01*
X-8000000Y-35600000D02*
X-8000000Y-32211975D01*
X-11500000Y-5465377D02*
X-11500000Y-26988025D01*
X-8566010Y-30817818D02*
X-10933990Y-28382182D01*
X-11500000Y-5465377D02*
G75*
G02*
X-10744151Y-3899463I2000007J-4D01*
G01*
X8000000Y-32211975D02*
G75*
G02*
X8566013Y-30817821I2000000J-5D01*
G01*
X-8566010Y-30817818D02*
G75*
G02*
X-8000000Y-32211975I-1433986J-1394155D01*
G01*
X8000000Y-35600000D02*
X8000000Y-32211975D01*
X8566010Y-30817818D02*
X10933990Y-28382182D01*
X4200000Y1300000D02*
X-4200000Y1300000D01*
X11500000Y-26988025D02*
G75*
G02*
X10933987Y-28382179I-2000000J5D01*
G01*
X-10933990Y-28382182D02*
G75*
G02*
X-11500000Y-26988025I1433986J1394155D01*
G01*
X6360000Y-36400000D02*
X7180006Y-36399750D01*
D11*
X-6520000Y-36400000D02*
X-4620000Y-36400000D01*
X-4620000Y-36400000D02*
X-4620000Y-30200000D01*
X-3820000Y-30200000D02*
X3820000Y-30200000D01*
X4620000Y-30200000D02*
X4620000Y-36400000D01*
X4620000Y-36400000D02*
X6360000Y-36400000D01*
X-4620000Y-30200000D02*
G75*
G02*
X-4295000Y-29800000I362499J37501D01*
G01*
X-4295000Y-29800000D02*
G75*
G02*
X-3970000Y-30080000I22501J-302499D01*
G01*
X-3820000Y-30200000D02*
G75*
G02*
X-3970000Y-30080000I-15000J135000D01*
G01*
X3970000Y-30080000D02*
G75*
G02*
X3820000Y-30200000I-135000J15000D01*
G01*
X3970000Y-30080000D02*
G75*
G02*
X4295000Y-29800000I302500J-22500D01*
G01*
X4295000Y-29800000D02*
G75*
G02*
X4620000Y-30200000I-37500J-362500D01*
G01*
M02*
